<svg width="18" height="18" viewBox="0 0 28 28" fill="none" xmlns="http://www.w3.org/2000/svg">
<path d="M16.1625 25.25C15.9427 25.6288 15.6273 25.9433 15.2478 26.1619C14.8683 26.3805 14.438 26.4956 14 26.4956C13.562 26.4956 13.1317 26.3805 12.7522 26.1619C12.3727 25.9433 12.0573 25.6288 11.8375 25.25M26.5 20.25H1.5C2.49456 20.25 3.44839 19.8549 4.15165 19.1517C4.85491 18.4484 5.25 17.4946 5.25 16.5V10.25C5.25 7.92936 6.17187 5.70376 7.81282 4.06282C9.45376 2.42187 11.6794 1.5 14 1.5C16.3206 1.5 18.5462 2.42187 20.1872 4.06282C21.8281 5.70376 22.75 7.92936 22.75 10.25V16.5C22.75 17.4946 23.1451 18.4484 23.8483 19.1517C24.5516 19.8549 25.5054 20.25 26.5 20.25Z" stroke="#ffffff" stroke-width="2" stroke-linecap="round" stroke-linejoin="round"/>
</svg>
