<svg width="80" height="80" viewBox="0 0 80 80" fill="none" xmlns="http://www.w3.org/2000/svg">
<path fill-rule="evenodd" clip-rule="evenodd" d="M56.6584 80H9.99854C4.47935 80 0 75.5141 0 69.9942C0 64.4943 4.44602 60.025 9.93189 59.9883H56.6584C62.1776 59.9883 66.657 64.4743 66.657 69.9942C66.657 75.5141 62.1776 80 56.6584 80ZM56.6584 66.6589C54.8187 66.6589 53.3256 68.1531 53.3256 69.9942C53.3256 71.8352 54.8187 73.3294 56.6584 73.3294C58.4981 73.3294 59.9913 71.8352 59.9913 69.9942C59.9913 68.1531 58.4981 66.6589 56.6584 66.6589ZM25.253 66.6589C23.4099 66.6589 21.9201 68.1531 21.9201 69.9942C21.9201 71.8352 23.4099 73.3294 25.253 73.3294C27.0894 73.3294 28.5858 71.8352 28.5858 69.9942C28.5858 68.1531 27.0894 66.6589 25.253 66.6589ZM9.99854 66.6589C8.15881 66.6589 6.6657 68.1531 6.6657 69.9942C6.6657 71.8352 8.15881 73.3294 9.99854 73.3294C11.8383 73.3294 13.3314 71.8352 13.3314 69.9942C13.3314 68.1531 11.8383 66.6589 9.99854 66.6589ZM41.254 66.6589C39.4143 66.6589 37.9178 68.1531 37.9178 69.9942C37.9178 71.8352 39.4143 73.3294 41.254 73.3294C43.0937 73.3294 44.5868 71.8352 44.5868 69.9942C44.5868 68.1531 43.0937 66.6589 41.254 66.6589ZM55.6286 56.653H3.33285C1.26315 56.653 0 54.9087 0 53.3178V36.6414C0 34.5702 1.74308 33.3061 3.33285 33.3061H23.3299V23.3003C23.3299 21.4559 24.8197 19.965 26.6628 19.965H37.7478C39.8509 17.2034 48.4463 5.91011 52.0424 1.28742C52.6923 0.450263 53.6722 0 54.672 0C55.1786 0 55.6852 0.113399 56.1618 0.350204L78.5252 11.5734C79.4451 12.0304 79.9983 12.9642 79.9983 13.9581C79.9983 14.3017 80.175 13.9215 76.8821 25.8884C77.6387 27.9396 78.5919 30.5812 79.3651 32.8292C79.7617 33.9932 79.9883 35.1438 79.9883 36.2478C79.9883 41.2741 74.8724 44.0357 70.8963 43.1385C65.7504 41.9745 58.9047 40.1034 58.9047 40.1034L71.2063 27.1025L72.0428 16.6297L56.6584 11.6801L51.3358 24.8979L58.8414 52.4406C59.418 54.5518 57.8349 56.653 55.6286 56.653ZM6.6657 49.9825H19.9971V46.6472H6.6657V49.9825ZM6.6657 43.3119H19.9971V39.9767H6.6657V43.3119ZM44.9335 26.6355H29.9956V39.9767H48.4163L44.9335 26.6355Z" fill="#EF5DA8"/>
</svg>
