<svg width="80" height="80" viewBox="0 0 80 80" fill="none" xmlns="http://www.w3.org/2000/svg">
<path fill-rule="evenodd" clip-rule="evenodd" d="M35 80H11.6667C7 80 3.33333 76.2 3.33333 71.6667V32.8667C1.12667 31.29 0 28.8633 0 26.3967C0 25.1433 0.296667 23.8967 0.963333 22.6333C4.51333 16.3067 8.14 10.0233 11.8467 3.78667C13.3867 1.33 15.8833 0 18.6633 0C20.78 0 21.9033 0.68 23.48 1.59667C25.6867 2.88333 53.48 19.4367 65.1867 26.4C65.4767 26.5733 76.4067 33.0267 76.6833 33.2167C78.8933 34.85 80 37.2067 80 39.6633C80 40.9133 79.6933 42.1467 79.0167 43.43C75.47 49.76 71.84 56.0433 68.1333 62.28C66.21 65.3467 62.75 66.58 59.8133 65.9067C58.5067 66.6867 40.3933 78.4067 38.9733 79.1333C37.5967 79.84 36.4333 80 35 80ZM10 44.1233V71.6667C10 72.58 10.7367 73.3333 11.6667 73.3333H26.96C21.2267 63.6467 15.57 53.91 10 44.1233ZM15.3533 39.9967C15.53 40.3033 34.29 72.6533 34.44 72.86C34.8 73.3233 35.4367 73.4633 35.9567 73.1867C36.5033 72.88 52.8933 62.35 52.8933 62.35C50.7633 61.0933 25.7467 46.18 15.3533 39.9967ZM17.55 7.23333C14.5067 12.0867 6.88667 25.65 6.76667 25.9333C6.53333 26.5033 6.74 27.1533 7.26333 27.48C7.93333 27.88 60.6733 59.3033 61.1867 59.3833C61.69 59.4567 62.1767 59.2333 62.4433 58.8033C65.5833 53.5233 73.13 40.3033 73.2167 40.1333C73.4467 39.56 73.24 38.91 72.7167 38.5833C72.0467 38.1833 19.44 6.92 19.0833 6.76333C18.4833 6.51667 17.8667 6.75667 17.55 7.23333ZM22.74 16.2167C26.42 16.2167 29.4067 19.2067 29.4067 22.8833C29.4067 26.5633 26.42 29.55 22.74 29.55C19.06 29.55 16.0733 26.5633 16.0733 22.8833C16.0733 19.2067 19.06 16.2167 22.74 16.2167Z" fill="#EF5DA8"/>
</svg>
