<svg id="Capa_1" data-name="Capa 1" xmlns="http://www.w3.org/2000/svg" viewBox="0 0 622 622"><defs><style>.cls-1{fill:#fff;}.cls-2{fill:#e55f9f;}</style></defs><title>Facebook</title><rect class="cls-1" width="622" height="622" rx="95" ry="95"/><path class="cls-2" d="M490.05,678.14c0,35.27-.18,70.54.16,105.8.06,6.5-1.78,8.09-8.1,8-25.14-.36-50.29-.47-75.42,0-7.39.15-9.05-1.79-9-9.07.31-69.88,0-139.76.41-209.64.05-8.73-2.11-11-10.73-10.66-19.9.7-39.83,0-59.75.35-5.64.09-7.16-1.71-7.1-7.2.26-24.81.33-49.64,0-74.45-.09-6.29,2-7.61,7.85-7.51,19.91.34,39.85-.32,59.75.34,8.45.28,9.94-2.57,10-10.4.25-26.73-2.13-53.54,1.63-80.19,7.75-55.05,46.51-90.44,102.39-93.2,23.52-1.16,47,.74,70.45,2.17,7,.43,9.18,2.94,9,10.14-.56,20.56-.5,41.15,0,61.71.16,7.15-1.51,9.63-9.11,9.42-16-.43-32-.07-48,.57-21.21.86-33.28,12.53-34.07,33.76-.74,19.89-.05,39.83-.42,59.74-.11,5.76,2.52,6.17,7.07,6.14,23.84-.16,47.68.1,71.51-.18,6.89-.08,10.15,0,8.61,9.19-3.84,22.79-6.24,45.85-8.7,68.86-.85,8-2.91,11.68-12.2,11.24-19.55-.91-39.18,0-58.76-.43-6.21-.14-7.58,1.8-7.54,7.69C490.18,606.3,490.05,642.22,490.05,678.14Z" transform="translate(-140 -230)"/></svg>