<svg width="80" height="80" viewBox="0 0 80 80" fill="none" xmlns="http://www.w3.org/2000/svg">
<path d="M60 36C69.19 36 76.6667 44.972 76.6667 56C76.6667 67.028 69.19 76 60 76C50.81 76 43.3333 67.028 43.3333 56C43.3333 44.972 50.81 36 60 36ZM60 32C48.9567 32 40 42.748 40 56C40 69.252 48.9567 80 60 80C71.0433 80 80 69.252 80 56C80 42.748 71.0433 32 60 32ZM61.6667 65.896V68H60V66.004C58.2733 65.968 56.49 65.476 55 64.552L55.76 61.264C57.3533 62.008 59.4733 62.796 61.1333 62.344C63.0467 61.824 63.44 59.46 61.3233 58.324C59.7733 57.456 55.0267 56.716 55.0267 51.836C55.0267 49.112 56.76 46.668 60 46.136V44H61.6667V46.036C62.8733 46.076 64.2267 46.328 65.7367 46.876L65.1333 50.172C63.8533 49.632 62.44 49.144 61.06 49.244C58.58 49.416 58.36 51.996 60.0933 53.076C62.9467 54.684 66.6667 55.876 66.6667 60.168C66.67 63.6 64.4267 65.428 61.6667 65.896ZM35.2967 44H26.6667V36H39.2167C37.6033 38.408 36.28 41.096 35.2967 44ZM33.3333 56H26.6667V48H34.2133C33.66 50.564 33.3333 53.236 33.3333 56ZM42.4233 32H26.6667V24H50V26.356C47.2033 27.72 44.6533 29.644 42.4233 32ZM50 8H26.6667V0H50V8ZM50 20H26.6667V12H50V20ZM35.2967 68H26.6667V60H33.5633C33.8567 62.792 34.4433 65.476 35.2967 68ZM0 24H23.3333V32H0V24ZM0 36H23.3333V44H0V36ZM42.4233 80H26.6667V72H36.94C38.4 75.012 40.2533 77.712 42.4233 80ZM0 60H23.3333V68H0V60ZM0 72H23.3333V80H0V72ZM0 48H23.3333V56H0V48Z" fill="#EF5DA8"/>
</svg>
