<svg id="Capa_1" data-name="Capa 1" xmlns="http://www.w3.org/2000/svg" viewBox="0 0 622 622"><defs><style>.cls-1{fill:#fff;}.cls-2{fill:#e55f9f;}.cls-3{fill:#f8f9fa;}</style></defs><title>instagram</title><rect class="cls-1" width="622" height="622" rx="95" ry="95"/><path class="cls-2" d="M705.79,541c0,37.49.08,75,0,112.46-.19,80.13-62.18,142.17-142.31,142.29q-112.46.18-224.91,0c-80.13-.12-142.17-62.16-142.3-142.29q-.16-112.46,0-224.92c.13-80.13,62.17-142.17,142.3-142.29q112.45-.18,224.91,0c80.13.12,142.12,62.17,142.31,142.29C705.87,466,705.79,503.51,705.79,541Zm-464,0c0,36.49-.06,73,0,109.45,0,6.94,0,14,1.3,20.78,9.27,47.85,46.36,78.77,95.22,78.94,75.29.27,150.57.1,225.86,0A89,89,0,0,0,581,749c47.85-9.23,79-46.31,79.17-95.06.29-75.29.1-150.58,0-225.86a90.83,90.83,0,0,0-1.13-16.83c-9.1-47.84-46.26-79.2-94.89-79.4-75.62-.31-151.24-.1-226.86,0a87.05,87.05,0,0,0-15.83,1.07c-48.19,9.05-79.37,46.41-79.68,95.7C241.58,466.05,241.77,503.53,241.77,541Z" transform="translate(-140 -230)"/><path class="cls-2" d="M582.37,541.69c-.29,72.13-59.73,130.95-132,130.66-72.14-.28-130.95-59.72-130.66-132,.28-72.14,59.71-130.95,132-130.66C523.83,409.93,582.66,469.38,582.37,541.69Zm-45.6-.41a85.76,85.76,0,1,0-86,85.47A85.32,85.32,0,0,0,536.77,541.28Z" transform="translate(-140 -230)"/><path class="cls-2" d="M620.76,404.17a32.68,32.68,0,0,1-32.11,33.36,33,33,0,1,1-1.71-65.91C605.86,371.3,620.59,385.48,620.76,404.17Z" transform="translate(-140 -230)"/><path class="cls-3" d="M536.77,541.28a85.76,85.76,0,1,1-85.47-86A85.32,85.32,0,0,1,536.77,541.28Z" transform="translate(-140 -230)"/></svg>