<svg id="Capa_1" data-name="Capa 1" xmlns="http://www.w3.org/2000/svg" viewBox="0 0 246.47 234.11"><defs><style>.cls-1{fill:#e55f9f;}</style></defs><title>logo</title><path class="cls-1" d="M131.45,66a48.61,48.61,0,0,0,1.15-5,.71.71,0,0,0-1.1-.71,24.63,24.63,0,0,0-6.52,7,90.44,90.44,0,0,0-9.54,20.33l8.81-.59A164.06,164.06,0,0,0,131.45,66Z"/><path class="cls-1" d="M112.06,97.69A222.23,222.23,0,0,0,105.33,132c5.59-8.56,11.92-23.89,14.76-34.74C117.35,97.49,114.8,97.49,112.06,97.69Z"/><path class="cls-1" d="M73.23,156.09c-.55.07-1,.21-2.07,1.54l-1.76,2.21a5.19,5.19,0,0,0-.69,2.47,2.68,2.68,0,0,0,.51,2.2,2.12,2.12,0,0,0,1.86.77,3.68,3.68,0,0,0,2.55-.94,7.61,7.61,0,0,0,2.26-2.81c.67-1.7.85-3.08.28-4.11S74.85,156,73.23,156.09Z"/><path class="cls-1" d="M120.24,4.45A113.15,113.15,0,1,0,233.4,117.6,113.15,113.15,0,0,0,120.24,4.45ZM80.93,163.91a11.26,11.26,0,0,1-2.87,4.21,10.19,10.19,0,0,1-7.35,2.95A6.91,6.91,0,0,1,65,168.65a8.31,8.31,0,0,1-1.82-4.9,13.68,13.68,0,0,1,1-5.62,1.44,1.44,0,0,1,.69-.83l3.1-3.72c2.21-2.52,3.69-3,5-3.21a3.69,3.69,0,0,1,1-.09h.26a8.05,8.05,0,0,1,6.19,3C82.54,155.84,82.45,160.14,80.93,163.91ZM199.6,146.26c-11.95,7.63-34.47,18.6-55.23,23.69-10.38,2.55-20.36,3.53-28.59,1.57s-16.54-7.43-17.91-16.83c-.39-2.94-1.17-11.75-1-12.14A160.67,160.67,0,0,1,103,98.68c-8.22.59-14.6.77-22.63,1.16h-.19a3.51,3.51,0,0,1-3.53-3.52c0-2,3.62-5.8,5.58-5.8,9.15-2.86,24-2.27,24.19-2.86A104.33,104.33,0,0,1,117.94,63c4.31-6.66,12.15-10.91,18.42-10.91a5.28,5.28,0,0,1,4.31,2.54,7.1,7.1,0,0,1,.78,3.92,37.46,37.46,0,0,1-1.56,9.2c-1.57,6.07-2.16,11.26-5.29,19.48,2.74,0,3.51-.19,6.25-.19,11.36,0,20,1.87,29.57,4.74,2.45.73,2.74,3,2.74,4.57a3.51,3.51,0,0,1-3.52,3.52c-.2,0-.79-.19-1-.19-11.36-3.14-22.23-2.94-37.51-2.35-7.63,18.6-16.84,37.79-22.13,46.8-1.67,2.2-1,4.09-.63,7,1,7.05,4.51,10,10.78,11.55s15.47.59,25.26-1.76c19.58-4.7,42.1-15.47,53.07-22.72a3.32,3.32,0,0,1,2-.59c2,0,1.71,3.75,1.71,5.71A3.73,3.73,0,0,1,199.6,146.26Z"/></svg>