<svg id="Capa_1" data-name="Capa 1" xmlns="http://www.w3.org/2000/svg" viewBox="0 0 234.29 234.11"><defs><style>.cls-1{fill:#e55f9f;}</style></defs><title>logoooo</title><path class="cls-1" d="M128.7,63.6a48,48,0,0,0,1.19-5.13.74.74,0,0,0-1.14-.74A25.5,25.5,0,0,0,122,65a94,94,0,0,0-9.87,21l9.11-.61A168,168,0,0,0,128.7,63.6Z"/><path class="cls-1" d="M108.66,96.4a228.49,228.49,0,0,0-7,35.51C107.48,123.06,114,107.21,117,96,114.12,96.19,111.49,96.19,108.66,96.4Z"/><path class="cls-1" d="M68.51,156.78c-.56.07-1.05.21-2.13,1.58l-1.82,2.29a5.41,5.41,0,0,0-.72,2.55,2.84,2.84,0,0,0,.53,2.29,2.18,2.18,0,0,0,1.92.79,3.8,3.8,0,0,0,2.64-1,7.86,7.86,0,0,0,2.34-2.9c.68-1.76.88-3.19.28-4.24S70.19,156.67,68.51,156.78Z"/><path class="cls-1" d="M117.12,0a117,117,0,1,0,117,117A117,117,0,0,0,117.12,0ZM76.47,164.86a11.71,11.71,0,0,1-3,4.35,10.57,10.57,0,0,1-7.6,3.06,7.15,7.15,0,0,1-5.93-2.5,8.64,8.64,0,0,1-1.89-5.07,14.27,14.27,0,0,1,1-5.82,1.55,1.55,0,0,1,.72-.86l3.2-3.84c2.29-2.6,3.82-3.13,5.21-3.31a3.47,3.47,0,0,1,1-.1h.28a8.3,8.3,0,0,1,6.4,3.06C78.14,156.52,78.05,161,76.47,164.86Zm122.69-18.25c-12.35,7.9-35.63,19.23-57.09,24.5-10.74,2.63-21.06,3.64-29.57,1.62S95.41,165.05,94,155.33c-.4-3-1.21-12.15-1-12.55a166.12,166.12,0,0,1,6.27-45.36c-8.5.61-15.09.8-23.39,1.2h-.2A3.63,3.63,0,0,1,72,95c0-2,3.74-6,5.76-6,9.47-3,24.81-2.35,25-3A107.6,107.6,0,0,1,114.74,60.5c4.46-6.88,12.56-11.28,19-11.28a5.48,5.48,0,0,1,4.46,2.63,7.32,7.32,0,0,1,.81,4,39,39,0,0,1-1.62,9.52c-1.62,6.28-2.23,11.63-5.47,20.14,2.84,0,3.63-.21,6.46-.21,11.74,0,20.69,1.94,30.57,4.91,2.54.76,2.84,3.1,2.84,4.72a3.63,3.63,0,0,1-3.65,3.64c-.2,0-.8-.2-1-.2-11.74-3.24-23-3-38.77-2.43-7.9,19.24-17.41,39.08-22.88,48.39-1.73,2.28-1.06,4.23-.65,7.27,1,7.28,4.66,10.32,11.14,11.94s16,.61,26.11-1.82c20.25-4.86,43.54-16,54.87-23.49a3.48,3.48,0,0,1,2-.61c2,0,1.76,3.88,1.76,5.9A3.84,3.84,0,0,1,199.16,146.61Z"/></svg>