<svg width="195" height="40" viewBox="0 0 195 40" fill="none" xmlns="http://www.w3.org/2000/svg">
<path d="M31.2846 17.2103C30.105 18.3455 29.5156 19.9245 29.6765 21.5176L29.6489 21.4912C29.8143 23.366 29.1073 25.2153 27.7165 26.5457C26.3256 27.8761 24.3923 28.5524 22.4323 28.3941L22.46 28.4206C20.0869 28.2093 17.83 29.444 16.8173 31.5078C15.8045 33.5715 16.2533 36.0211 17.9394 37.6325C19.6255 39.2438 22.1867 39.6709 24.3433 38.7003C26.4999 37.7297 27.7887 35.5698 27.5657 33.3L27.5949 33.3265C27.4294 31.4516 28.1364 29.6024 29.5273 28.272C30.9182 26.9415 32.8514 26.2653 34.8114 26.4235L34.7822 26.3971C37.3904 26.6214 39.8172 25.1002 40.6433 22.7233C41.4694 20.3463 40.4777 17.738 38.2483 16.4241C36.0188 15.1101 33.1373 15.4357 31.2893 17.2103H31.2846Z" fill="#C879FF"/>
<path d="M19.9433 24.9531L19.9141 24.9267C21.5807 25.0873 23.2346 24.5236 24.4195 23.391C25.6044 22.2585 26.195 20.6769 26.0283 19.0825L26.0575 19.109C25.8921 17.2342 26.5991 15.3849 27.9899 14.0545C29.3808 12.7241 31.3141 12.0478 33.2741 12.2061L33.2449 12.1796C35.6182 12.3928 37.8764 11.1594 38.8907 9.09594C39.905 7.03248 39.4575 4.58219 37.7719 2.96986C36.0863 1.35753 33.5247 0.929502 31.3675 1.89972C29.2103 2.86994 27.9209 5.03001 28.1438 7.30019L28.1161 7.27225C28.2821 9.14722 27.5753 10.9968 26.1843 12.3273C24.7933 13.6579 22.8597 14.334 20.8996 14.1752L20.9272 14.2031C19.2606 14.0425 17.6067 14.6062 16.4218 15.7388C15.2369 16.8713 14.6463 18.4529 14.813 20.0473L14.7853 20.0208C14.9502 21.8955 14.2431 23.7444 12.8523 25.0747C11.4616 26.405 9.52867 27.0815 7.56881 26.9237L7.59648 26.9502C5.22316 26.737 2.96497 27.9704 1.95067 30.0339C0.936374 32.0973 1.38385 34.5476 3.06942 36.1599C4.755 37.7723 7.31661 38.2003 9.47381 37.2301C11.631 36.2599 12.9204 34.0998 12.6976 31.8296L12.7268 31.8561C12.5613 29.9812 13.2683 28.132 14.6592 26.8016C16.05 25.4711 17.9833 24.7949 19.9433 24.9531Z" fill="#EF5DA8"/>
<path d="M9.63989 22.0016C10.8197 20.8665 11.4087 19.2873 11.2465 17.6942L11.2757 17.7207C11.1101 15.8453 11.8175 13.9955 13.2091 12.665C14.6006 11.3344 16.5348 10.6586 18.4953 10.8178L18.4661 10.7913C20.8386 11.0039 23.0957 9.7706 24.1094 7.7078C25.123 5.64499 24.6756 3.19566 22.9906 1.58393C21.3057 -0.0277992 18.7451 -0.455804 16.5886 0.513824C14.4321 1.48345 13.1427 3.64248 13.365 5.91187L13.3373 5.8854C13.5028 7.76024 12.7958 9.60949 11.4049 10.9399C10.0141 12.2703 8.08079 12.9466 6.12079 12.7883L6.14846 12.8148C3.54043 12.5911 1.11405 14.1127 0.28845 16.4896C-0.537155 18.8666 0.454875 21.4746 2.68433 22.7882C4.91379 24.1019 7.79505 23.7762 9.64296 22.0016H9.63989Z" fill="#C879FF"/>
<path d="M61.728 22.214C61.728 23.3761 61.5083 24.4698 61.0688 25.4952C60.6294 26.5109 60.0288 27.3995 59.2671 28.1613C58.5151 28.9132 57.6265 29.5089 56.6011 29.9484C55.5854 30.3878 54.4966 30.6075 53.3345 30.6075C52.6313 30.6075 51.9282 30.5197 51.2251 30.3439V25.8322C51.5376 26.0177 51.8745 26.1593 52.2358 26.257C52.5972 26.3546 52.9634 26.4034 53.3345 26.4034C53.9106 26.4034 54.4526 26.296 54.9604 26.0812C55.478 25.8566 55.9272 25.5538 56.3081 25.173C56.689 24.7921 56.9868 24.3478 57.2017 23.84C57.4263 23.3322 57.5386 22.7902 57.5386 22.214V9.60168H61.728V22.214ZM79.9921 22.6241C79.9921 23.796 79.7821 24.8898 79.3622 25.9054C78.9423 26.9113 78.371 27.7853 77.6483 28.5275C76.9257 29.2599 76.0761 29.8409 75.0995 30.2706C74.1327 30.6906 73.0927 30.9005 71.9794 30.9005C70.8759 30.9005 69.8358 30.6906 68.8593 30.2706C67.8925 29.8409 67.0429 29.2599 66.3104 28.5275C65.5878 27.7853 65.0165 26.9113 64.5966 25.9054C64.1767 24.8898 63.9667 23.796 63.9667 22.6241C63.9667 21.4327 64.1767 20.3292 64.5966 19.3136C65.0165 18.298 65.5878 17.424 66.3104 16.6915C67.0429 15.9493 67.8925 15.3683 68.8593 14.9484C69.8358 14.5284 70.8759 14.3185 71.9794 14.3185C73.0927 14.3185 74.1327 14.5187 75.0995 14.9191C76.0761 15.3097 76.9257 15.8712 77.6483 16.6036C78.371 17.3263 78.9423 18.2003 79.3622 19.2257C79.7821 20.2413 79.9921 21.3741 79.9921 22.6241ZM75.9638 22.6241C75.9638 21.9796 75.8563 21.3986 75.6415 20.881C75.4364 20.3536 75.1532 19.9044 74.7919 19.5333C74.4306 19.1525 74.0058 18.8644 73.5175 18.6691C73.039 18.464 72.5263 18.3615 71.9794 18.3615C71.4325 18.3615 70.9149 18.464 70.4267 18.6691C69.9481 18.8644 69.5282 19.1525 69.1669 19.5333C68.8153 19.9044 68.537 20.3536 68.3319 20.881C68.1269 21.3986 68.0243 21.9796 68.0243 22.6241C68.0243 23.2296 68.1269 23.7911 68.3319 24.3087C68.537 24.8263 68.8153 25.2755 69.1669 25.6564C69.5282 26.0372 69.9481 26.34 70.4267 26.5646C70.9149 26.7794 71.4325 26.8868 71.9794 26.8868C72.5263 26.8868 73.039 26.7843 73.5175 26.5792C74.0058 26.3741 74.4306 26.0861 74.7919 25.715C75.1532 25.3439 75.4364 24.8947 75.6415 24.3673C75.8563 23.84 75.9638 23.2589 75.9638 22.6241ZM98.0071 22.6241C98.0071 23.8546 97.7972 24.9777 97.3772 25.9933C96.9573 27.0089 96.386 27.8829 95.6634 28.6154C94.9407 29.338 94.0911 29.8995 93.1146 30.2999C92.1478 30.7003 91.1077 30.9005 89.9944 30.9005C88.8909 30.9005 87.8509 30.6954 86.8743 30.2853C85.9075 29.8751 85.0579 29.3038 84.3255 28.5714C83.6028 27.839 83.0315 26.9698 82.6116 25.964C82.1917 24.9484 81.9817 23.8351 81.9817 22.6241V8.67883H85.9954V16.0031C86.2103 15.7296 86.469 15.4855 86.7718 15.2706C87.0843 15.0558 87.4163 14.88 87.7679 14.7433C88.1292 14.6066 88.5003 14.504 88.8812 14.4357C89.262 14.3575 89.6331 14.3185 89.9944 14.3185C91.1077 14.3185 92.1478 14.5284 93.1146 14.9484C94.0911 15.3585 94.9407 15.9347 95.6634 16.6769C96.386 17.4191 96.9573 18.298 97.3772 19.3136C97.7972 20.3195 98.0071 21.423 98.0071 22.6241ZM93.9788 22.6241C93.9788 22.0187 93.8714 21.4572 93.6565 20.9396C93.4515 20.4122 93.1683 19.9581 92.8069 19.5773C92.4456 19.1964 92.0208 18.8986 91.5325 18.6837C91.054 18.4689 90.5413 18.3615 89.9944 18.3615C89.4476 18.3615 88.93 18.4835 88.4417 18.7277C87.9632 18.962 87.5433 19.2794 87.1819 19.6798C86.8206 20.0704 86.5374 20.5245 86.3323 21.0421C86.1272 21.5499 86.0247 22.0773 86.0247 22.6241C86.0247 23.2296 86.1272 23.7911 86.3323 24.3087C86.5374 24.8263 86.8206 25.2755 87.1819 25.6564C87.5433 26.0372 87.9632 26.34 88.4417 26.5646C88.93 26.7794 89.4476 26.8868 89.9944 26.8868C90.5413 26.8868 91.054 26.7794 91.5325 26.5646C92.0208 26.34 92.4456 26.0372 92.8069 25.6564C93.1683 25.2755 93.4515 24.8263 93.6565 24.3087C93.8714 23.7911 93.9788 23.2296 93.9788 22.6241ZM104.963 13.8058V22.214H109.167C109.743 22.214 110.285 22.1066 110.793 21.8917C111.3 21.6671 111.745 21.3644 112.126 20.9835C112.507 20.6027 112.804 20.1583 113.019 19.6505C113.244 19.1329 113.356 18.5861 113.356 18.0099C113.356 17.4337 113.244 16.8917 113.019 16.3839C112.804 15.8663 112.507 15.4171 112.126 15.0363C111.745 14.6554 111.3 14.3575 110.793 14.1427C110.285 13.9181 109.743 13.8058 109.167 13.8058H104.963ZM104.963 30.6075H100.758V9.60168H109.167C109.938 9.60168 110.68 9.70422 111.393 9.9093C112.106 10.1046 112.77 10.3878 113.385 10.7589C114.01 11.1202 114.577 11.5597 115.085 12.0773C115.602 12.5851 116.042 13.1515 116.403 13.7765C116.774 14.4015 117.057 15.0704 117.253 15.7833C117.458 16.4962 117.56 17.2384 117.56 18.0099C117.56 19.1622 117.341 20.2511 116.901 21.2765C116.462 22.2921 115.861 23.1808 115.099 23.9425C114.338 24.7042 113.444 25.3048 112.419 25.7443C111.403 26.1837 110.319 26.4034 109.167 26.4034H104.963V30.6075ZM134.872 22.6241C134.872 23.796 134.662 24.8898 134.242 25.9054C133.822 26.9113 133.251 27.7853 132.528 28.5275C131.806 29.2599 130.956 29.8409 129.98 30.2706C129.013 30.6906 127.973 30.9005 126.859 30.9005C125.756 30.9005 124.716 30.6906 123.739 30.2706C122.773 29.8409 121.923 29.2599 121.191 28.5275C120.468 27.7853 119.897 26.9113 119.477 25.9054C119.057 24.8898 118.847 23.796 118.847 22.6241C118.847 21.4327 119.057 20.3292 119.477 19.3136C119.897 18.298 120.468 17.424 121.191 16.6915C121.923 15.9493 122.773 15.3683 123.739 14.9484C124.716 14.5284 125.756 14.3185 126.859 14.3185C127.973 14.3185 129.013 14.5187 129.98 14.9191C130.956 15.3097 131.806 15.8712 132.528 16.6036C133.251 17.3263 133.822 18.2003 134.242 19.2257C134.662 20.2413 134.872 21.3741 134.872 22.6241ZM130.844 22.6241C130.844 21.9796 130.736 21.3986 130.522 20.881C130.317 20.3536 130.033 19.9044 129.672 19.5333C129.311 19.1525 128.886 18.8644 128.398 18.6691C127.919 18.464 127.406 18.3615 126.859 18.3615C126.313 18.3615 125.795 18.464 125.307 18.6691C124.828 18.8644 124.408 19.1525 124.047 19.5333C123.695 19.9044 123.417 20.3536 123.212 20.881C123.007 21.3986 122.904 21.9796 122.904 22.6241C122.904 23.2296 123.007 23.7911 123.212 24.3087C123.417 24.8263 123.695 25.2755 124.047 25.6564C124.408 26.0372 124.828 26.34 125.307 26.5646C125.795 26.7794 126.313 26.8868 126.859 26.8868C127.406 26.8868 127.919 26.7843 128.398 26.5792C128.886 26.3741 129.311 26.0861 129.672 25.715C130.033 25.3439 130.317 24.8947 130.522 24.3673C130.736 23.84 130.844 23.2589 130.844 22.6241ZM141.183 30.6075H137.184V14.9191H138.151L139.469 16.7794C140.114 16.1935 140.846 15.7443 141.667 15.4318C142.487 15.1095 143.336 14.9484 144.215 14.9484H147.746V18.9327H144.215C143.795 18.9327 143.4 19.0109 143.029 19.1671C142.658 19.3234 142.335 19.5382 142.062 19.8116C141.789 20.0851 141.574 20.4073 141.417 20.7784C141.261 21.1495 141.183 21.545 141.183 21.965V30.6075ZM157.572 30.6075C156.605 30.6075 155.697 30.4269 154.848 30.0656C153.998 29.6945 153.251 29.1915 152.606 28.5568C151.972 27.9122 151.469 27.1652 151.098 26.3156C150.736 25.4659 150.556 24.5577 150.556 23.5909V18.9327H148.607V14.9484H150.556V8.67883H154.54V14.9484H160.604V18.9327H154.54V23.5909C154.54 24.0109 154.618 24.4064 154.774 24.7775C154.931 25.1388 155.145 25.4562 155.419 25.7296C155.692 26.0031 156.015 26.2228 156.386 26.3888C156.757 26.545 157.152 26.6232 157.572 26.6232H160.604V30.6075H157.572ZM178.151 30.6075H177.184L175.631 28.4542C175.25 28.796 174.845 29.1183 174.415 29.421C173.995 29.714 173.551 29.9728 173.082 30.1974C172.614 30.4122 172.13 30.5831 171.632 30.7101C171.144 30.837 170.646 30.9005 170.138 30.9005C169.034 30.9005 167.994 30.715 167.018 30.3439C166.051 29.9728 165.201 29.4357 164.469 28.7325C163.746 28.0197 163.175 27.1505 162.755 26.1251C162.335 25.0997 162.125 23.9327 162.125 22.6241C162.125 21.4034 162.335 20.2853 162.755 19.2697C163.175 18.2443 163.746 17.3654 164.469 16.6329C165.201 15.9005 166.051 15.3341 167.018 14.9337C167.994 14.5236 169.034 14.3185 170.138 14.3185C170.646 14.3185 171.149 14.382 171.647 14.5089C172.145 14.6359 172.628 14.8116 173.097 15.0363C173.566 15.2609 174.01 15.5245 174.43 15.8273C174.86 16.13 175.26 16.4572 175.631 16.8087L177.184 14.9484H178.151V30.6075ZM174.122 22.6241C174.122 22.0773 174.015 21.5499 173.8 21.0421C173.595 20.5245 173.312 20.0704 172.95 19.6798C172.589 19.2794 172.164 18.962 171.676 18.7277C171.198 18.4835 170.685 18.3615 170.138 18.3615C169.591 18.3615 169.074 18.4542 168.585 18.6398C168.107 18.8253 167.687 19.0988 167.325 19.4601C166.974 19.8214 166.696 20.2706 166.491 20.8077C166.285 21.3351 166.183 21.9406 166.183 22.6241C166.183 23.3077 166.285 23.9181 166.491 24.4552C166.696 24.9825 166.974 25.4269 167.325 25.7882C167.687 26.1495 168.107 26.423 168.585 26.6085C169.074 26.7941 169.591 26.8868 170.138 26.8868C170.685 26.8868 171.198 26.7697 171.676 26.5353C172.164 26.2911 172.589 25.9738 172.95 25.5831C173.312 25.1827 173.595 24.7286 173.8 24.2208C174.015 23.7032 174.122 23.171 174.122 22.6241ZM185.341 30.6075H181.312V8.67883H185.341V30.6075Z" fill="#495057"/>
</svg>
