<svg width="80" height="80" viewBox="0 0 80 80" fill="none" xmlns="http://www.w3.org/2000/svg">
<path d="M40 6.66667C58.38 6.66667 73.3333 21.62 73.3333 40C73.3333 58.38 58.38 73.3333 40 73.3333C21.62 73.3333 6.66667 58.38 6.66667 40C6.66667 21.62 21.62 6.66667 40 6.66667ZM40 0C17.91 0 0 17.91 0 40C0 62.09 17.91 80 40 80C62.09 80 80 62.09 80 40C80 17.91 62.09 0 40 0ZM36.6667 53.3333L16.6667 43.55V36.4467L36.6667 26.6667V33.9967L24.5333 40L36.6667 45.9867V53.3333ZM43.3333 26.6667V33.9967L55.4667 40L43.3333 45.9867V53.3333L63.3333 43.55V36.4467L43.3333 26.6667Z" fill="#EF5DA8"/>
</svg>
