<svg width="60" height="80" viewBox="0 0 60 80" fill="none" xmlns="http://www.w3.org/2000/svg">
<path fill-rule="evenodd" clip-rule="evenodd" d="M56.6667 52.0933C56.6667 49.7167 56.1533 45.6967 52.6967 45.4933C51.0533 45.3933 49.73 44.1133 49.5767 42.48C49.3933 40.5433 48.9567 38.5333 47.99 36.6667H12.0133C11.0467 38.5333 10.61 40.5433 10.4267 42.4767C10.2733 44.11 8.95 45.39 7.30667 45.49C3.85 45.6967 3.33333 49.7167 3.33333 52.0933C3.33333 53.1467 4.44333 57.47 7.77 58.6367C8.71667 58.97 9.46333 59.71 9.80333 60.6533C13.0233 69.6333 21.8967 76.6667 30 76.6667C38.5067 76.6667 47.3167 68.3367 50.21 60.5533C50.57 59.5867 51.3567 58.8367 52.3467 58.5333C55.9133 57.4267 56.6667 52.9333 56.6667 52.0933ZM13.3333 27.9967V33.3333H23.3333V28.3333C23.3333 27.4133 24.08 26.6667 25 26.6667C25.92 26.6667 26.6667 27.4133 26.6667 28.3333V33.3333H33.3333V28.3333C33.3333 27.4133 34.0833 26.6667 35 26.6667C35.9167 26.6667 36.6667 27.4133 36.6667 28.3333V33.3333H46.6667V27.8433C47.48 27.65 56.6667 26.38 56.6667 17.6167C56.6667 10.97 50.8233 5.68333 43.75 5.68333C41.0633 5.68333 39.49 6.34333 37.28 7.11C33.49 3.36667 31.8467 3.33333 30 3.33333C28.3933 3.33333 26.54 3.34 22.72 7.11C20.4533 6.32667 18.94 5.68333 16.25 5.68333C9.17667 5.68333 3.33333 10.97 3.33333 17.6167C3.33333 25.8033 12.2067 27.66 13.3333 27.9967ZM60 52.0933C60 54.3267 58.49 60.1167 53.3333 61.7167C49.9233 70.8967 40.0033 80 30 80C19.9967 80 10.1433 71.4767 6.66667 61.78C1.6 60.0067 0 54.11 0 52.0933C0 47.0633 2.01 42.4667 7.10667 42.1633C7.43333 38.7033 8.48 35.98 10 33.7367V30.48C3.91667 28.66 0 23.0167 0 17.6167C0 9.19 7.28333 2.35 16.25 2.35C18.22 2.35 20.1067 2.68 21.8533 3.28333C23.9033 1.26 26.7967 0 30 0C33.2033 0 36.0933 1.26 38.1433 3.28333C39.8933 2.68 41.78 2.35 43.75 2.35C52.7167 2.35 60 9.19 60 17.6167C60 23.0167 55.9033 29.09 50 30.48V33.7333C51.52 35.9833 52.57 38.7067 52.8933 42.1633C57.9833 42.4667 60 47.0367 60 52.0933ZM30 57.72C23.6667 53.43 25.4967 63.9 16.6667 59.6067C18 65.54 26.0167 66.5467 30 62.97C33.9833 66.5467 42 65.54 43.3333 59.6067C34.5067 63.9033 36.3333 53.4333 30 57.72ZM40 43.3333C38.16 43.3333 36.6667 45.0833 36.6667 47.2467C36.6667 49.4033 38.16 51.16 40 51.16C41.84 51.16 43.3333 49.4033 43.3333 47.2467C43.3333 45.0833 41.84 43.3333 40 43.3333ZM23.3333 47.2467C23.3333 49.4033 21.84 51.16 20 51.16C18.16 51.16 16.6667 49.4033 16.6667 47.2467C16.6667 45.0833 18.16 43.3333 20 43.3333C21.84 43.3333 23.3333 45.0833 23.3333 47.2467Z" fill="#EF5DA8"/>
</svg>
