<svg id="Capa_1" data-name="Capa 1" xmlns="http://www.w3.org/2000/svg" viewBox="0 0 622 622"><defs><style>.cls-1{fill:#fff;}.cls-2{fill:#e55f9f;}</style></defs><title>Youtube</title><rect class="cls-1" width="622" height="622" rx="95" ry="95"/><path class="cls-2" d="M450.51,723c-56.6.9-113.19-.24-169.77-1.9a275.92,275.92,0,0,1-28.85-2.4c-31.86-4.27-45.08-27.31-53.58-54.52-8-25.52-10.41-52-11.34-78.52-2-55.86-3.47-111.74,11.07-166.52a117,117,0,0,1,11.07-26.56c10.39-18.83,26.73-27.73,47.8-29.59,31.66-2.78,63.42-3.24,95.14-3.53,88-.83,176-1.45,264,1.67,11,.39,22.06,1.14,33,2.29,26.57,2.77,41.27,19.83,50.45,43,11.33,28.61,14,58.81,15.4,89.13,2.32,51.06,2.63,102.08-7.13,152.59a139.46,139.46,0,0,1-14.45,40.58c-10.46,19.21-26.82,28.58-48.29,30.63-31.31,3-62.73,2.69-94.1,3.45C517.48,723.58,484,723,450.51,723ZM385.28,442.17V640.11l164.92-99Z" transform="translate(-140 -230)"/></svg>